<svg xmlns="http://www.w3.org/2000/svg" viewBox="0 0 6.42 11.11"><defs><style>.cls-1{fill:#797a7c;}</style></defs><title>after_1</title><g id="Capa_2" data-name="Capa 2"><g id="Layer_1" data-name="Layer 1"><path class="cls-1" d="M.31,4.9c.42-.45,1.74-1.73,1.74-1.73L4.69.53,5,.25a.85.85,0,0,1,1.2,0,.86.86,0,0,1,0,1.21l-.27.27L2.83,4.8l-.77.76L5.89,9.39l.28.27A.86.86,0,1,1,5,10.87l-.27-.28L1.62,7.53.25,6.16a.85.85,0,0,1-.18-.28.77.77,0,0,1,0-.64,1,1,0,0,1,.08-.15A1.58,1.58,0,0,1,.31,4.9Z"/></g></g></svg>