<svg xmlns="http://www.w3.org/2000/svg" viewBox="0 0 6.42 11.11"><defs><style>.cls-1{fill:#797a7c;}</style></defs><title>before_1</title><g id="Capa_2" data-name="Capa 2"><g id="Layer_1" data-name="Layer 1"><path class="cls-1" d="M6.11,6.22c-.42.45-1.74,1.73-1.74,1.73L1.73,10.59l-.27.28a.85.85,0,0,1-1.2,0,.86.86,0,0,1,0-1.21l.27-.27L3.59,6.32l.77-.76L.53,1.73.25,1.46A.86.86,0,0,1,.25.25a.86.86,0,0,1,1.21,0l.27.28L4.8,3.59,6.17,5a.85.85,0,0,1,.18.28.77.77,0,0,1,0,.64A1,1,0,0,1,6.27,6,1.58,1.58,0,0,1,6.11,6.22Z"/></g></g></svg>