<svg xmlns="http://www.w3.org/2000/svg" viewBox="0 0 19.57 15.38"><defs><style>.cls-1{fill:#797a7c;}</style></defs><title>cart</title><g id="Capa_2" data-name="Capa 2"><g id="Layer_1" data-name="Layer 1"><path class="cls-1" d="M19.53,3.47l-2.28,7.17a1.2,1.2,0,0,1-1.15.85H7.32a1.25,1.25,0,0,1-1.17-.79l-3.36-9H.85A.85.85,0,1,1,.85,0H3.38a.87.87,0,0,1,.81.58L7.66,9.79h8.08L17.55,4h-10a.85.85,0,0,1,0-1.7H18.72a.84.84,0,0,1,.68.36A.82.82,0,0,1,19.53,3.47ZM7.74,12.62a1.38,1.38,0,1,0,1,.4A1.4,1.4,0,0,0,7.74,12.62Zm7.64,0a1.38,1.38,0,1,0,1,.4A1.4,1.4,0,0,0,15.38,12.62Z"/></g></g></svg>