<svg xmlns="http://www.w3.org/2000/svg" viewBox="0 0 14.4 16.3"><defs><style>.cls-1{fill:#797a7c;}</style></defs><title>instagram</title><g id="Capa_2" data-name="Capa 2"><g id="Layer_1" data-name="Layer 1"><path class="cls-1" d="M12.85,0H1.63C.6,0,0,1.66,0,2.75V14.51A1.58,1.58,0,0,0,1.63,16.3H12.85c1,0,1.55-.7,1.55-1.78V2.75C14.4,1.66,13.87,0,12.85,0ZM10.06,2.81h1.82c.32,0,.31-.13.31.27V4.76c0,.4,0,.38-.31.38H10.06c-.32,0-.09,0-.09-.38V3.08C10,2.68,9.74,2.81,10.06,2.81Zm-3,2.3a3,3,0,1,1-3,3A3,3,0,0,1,7.08,5.12ZM12.17,14H1.93c-.32,0-.82-.13-.82-.47V7H2.69c-.12,0-.19.86-.19,1.32A4.61,4.61,0,0,0,7.08,13,4.61,4.61,0,0,0,11.65,8.3c0-.46-.07-1.32-.19-1.32h.72V13.5C12.18,13.84,12.5,14,12.17,14Z"/></g></g></svg>