<svg xmlns="http://www.w3.org/2000/svg" viewBox="0 0 1187.84 138.88"><title>monstruosus-logo</title><path d="M1180,53.16V33.41c-5-3.68-17.79-8.24-31.89-8.24-20.4,0-35.38,12.58-35.38,30.6,0,17.79,15.2,26.25,24.31,30.38l16.71,6.93c6.73,2.83,11.71,6.52,11.71,13.68,0,7.82-7.59,12.37-19.74,12.37-10,0-26.26-6.07-31-10.2h-1.52v20.84c5.85,4.12,20.4,9.11,33.85,9.11,24.53,0,40.8-12.58,40.8-32.55,0-18.66-12.15-26.47-22.35-31l-19.74-8.68c-5.87-2.61-10.85-5.21-10.85-11.94,0-5.86,6.51-10,16.71-10,9.33,0,21,3.47,26.9,8.46H1180ZM1067,107.85c-3.25,4.34-12.59,10.2-22.56,10.2-14.76,0-21.93-8.25-21.93-23.22V28.21H999.7V98.29c0,25.82,16.49,40.58,39.06,40.58,14.1,0,26.26-8.46,30.38-13v10h20.62V28.21H1067v79.64ZM972.8,53.16V33.41c-5-3.68-17.8-8.24-31.91-8.24-20.39,0-35.36,12.58-35.36,30.6,0,17.79,15.19,26.25,24.31,30.38l16.71,6.93c6.73,2.83,11.71,6.52,11.71,13.68,0,7.82-7.6,12.37-19.75,12.37-10,0-26.25-6.07-31-10.2H906v20.84c5.86,4.12,20.4,9.11,33.85,9.11,24.53,0,40.79-12.58,40.79-32.55,0-18.66-12.15-26.47-22.35-31l-19.75-8.68c-5.85-2.61-10.85-5.21-10.85-11.94,0-5.86,6.51-10,16.71-10,9.33,0,21,3.47,26.91,8.46h1.52ZM799.63,82c0-20.83,13.24-36.24,33.64-36.24,20,0,33.63,16.06,33.63,36.24,0,20.4-13.68,36-33.63,36-20.4,0-33.64-15.63-33.64-36m-23,0c0,33,24.74,56.86,56.64,56.86S889.9,115,889.9,82s-24.74-56.85-56.63-56.85S776.63,49.69,776.63,82m-43.18,25.83c-3.25,4.34-12.58,10.2-22.57,10.2C696.13,118,689,109.79,689,94.82V28.21H666.18V98.29c0,25.82,16.49,40.58,39.06,40.58,14.11,0,26.26-8.46,30.39-13v10h20.61V28.21H733.45v79.64Zm-117.18-57H651V28.21H593.48V135.84h22.79v-85Zm-71-22.65V0H522.52V28.21H499.09V50.86h23.43v85h48.83v-20h-26v-65h27.12V28.21H545.31Zm-63.15,25V33.41c-5-3.68-17.8-8.24-31.9-8.24-20.39,0-35.37,12.58-35.37,30.6,0,17.79,15.2,26.25,24.31,30.38l16.71,6.93c6.73,2.83,11.72,6.52,11.72,13.68,0,7.82-7.59,12.37-19.75,12.37-10,0-26.24-6.07-31-10.2h-1.52v20.84c5.87,4.12,20.4,9.11,33.85,9.11,24.52,0,40.79-12.58,40.79-32.55,0-18.66-12.15-26.47-22.35-31l-19.75-8.68C442,64,437,61.41,437,54.68c0-5.86,6.51-10,16.71-10,9.33,0,21,3.47,26.91,8.46h1.52Zm-157.32,3c2.82-3.91,13.24-10.63,22.57-10.63,14.76,0,22.79,8.24,22.79,23.21v67.06H393V66.62c0-26.91-14.75-41.45-39.93-41.45-14.1,0-26.26,8.47-30.38,13v-10H302.05V135.84h22.79V56.2ZM191.39,82c0-20.83,13.24-36.24,33.63-36.24,20,0,33.63,16.06,33.63,36.24,0,20.4-13.67,36-33.63,36-20.39,0-33.63-15.63-33.63-36m-23,0c0,33,24.74,56.86,56.64,56.86S281.67,115,281.67,82,256.92,25.17,225,25.17,168.39,49.69,168.39,82m-43.18,53.82H148V28.21H0V135.84H22.78V51H62.71v84.84H85.5V51h39.71v84.84Z" style="fill:#fff"/></svg>