<svg xmlns="http://www.w3.org/2000/svg" viewBox="0 0 244.85 29.27"><defs><style>.cls-1{stroke:#000;stroke-linecap:square;stroke-linejoin:bevel;stroke-width:0.73px;}</style></defs><title>Recurso 3</title><g id="Capa_2" data-name="Capa 2"><g id="Layer_1" data-name="Layer 1"><path class="cls-1" d="M242.88,11.29V7.23a12.56,12.56,0,0,0-6.55-1.69c-4.19,0-7.27,2.58-7.27,6.29s3.13,5.39,5,6.24l3.43,1.42c1.38.58,2.41,1.34,2.41,2.81s-1.56,2.54-4.05,2.54a13.32,13.32,0,0,1-6.38-2.09h-.31V27a14.13,14.13,0,0,0,7,1.87c5,0,8.39-2.58,8.39-6.69,0-3.84-2.5-5.44-4.6-6.38l-4.05-1.79c-1.21-.53-2.23-1.07-2.23-2.45,0-1.21,1.34-2.05,3.43-2.05a9.6,9.6,0,0,1,5.53,1.74ZM219.65,22.53A6.43,6.43,0,0,1,215,24.62c-3,0-4.51-1.7-4.51-4.77V6.16h-4.68v14.4c0,5.31,3.39,8.34,8,8.34a9.26,9.26,0,0,0,6.24-2.68v2.06h4.24V6.16h-4.68ZM200.29,11.29V7.23a12.56,12.56,0,0,0-6.56-1.69c-4.2,0-7.27,2.58-7.27,6.29s3.12,5.39,5,6.24l3.44,1.42c1.38.58,2.41,1.34,2.41,2.81s-1.56,2.54-4.06,2.54a13.31,13.31,0,0,1-6.38-2.09h-.31V27a14.14,14.14,0,0,0,7,1.87c5,0,8.38-2.58,8.38-6.69,0-3.84-2.5-5.44-4.59-6.38l-4.06-1.79C192,13.52,191,13,191,11.6c0-1.21,1.34-2.05,3.44-2.05A9.62,9.62,0,0,1,200,11.29ZM164.7,17.22c0-4.28,2.72-7.45,6.92-7.45s6.91,3.3,6.91,7.45-2.81,7.4-6.91,7.4-6.92-3.21-6.92-7.4m-4.73,0a11.64,11.64,0,1,0,23.28,0,11.64,11.64,0,1,0-23.28,0m-8.87,5.31a6.43,6.43,0,0,1-4.64,2.09c-3,0-4.5-1.7-4.5-4.77V6.16h-4.68v14.4c0,5.31,3.39,8.34,8,8.34a9.28,9.28,0,0,0,6.25-2.68v2.06h4.24V6.16H151.1ZM127,10.82h7.14V6.16H122.33V28.28H127ZM112.44,6.16V.36h-4.68v5.8h-4.82v4.65h4.82V28.28h10v-4.1h-5.35V10.82H118V6.16Zm-13,5.12V7.23A12.55,12.55,0,0,0,92.9,5.54c-4.19,0-7.27,2.58-7.27,6.29s3.12,5.39,5,6.24l3.43,1.42c1.39.58,2.41,1.34,2.41,2.81s-1.56,2.54-4.06,2.54A13.34,13.34,0,0,1,86,22.75h-.31V27a14.15,14.15,0,0,0,7,1.87c5,0,8.38-2.58,8.38-6.69,0-3.84-2.5-5.44-4.59-6.38l-4.06-1.79c-1.2-.53-2.23-1.07-2.23-2.45,0-1.21,1.34-2.05,3.44-2.05a9.6,9.6,0,0,1,5.53,1.74Zm-32.33.63a6.91,6.91,0,0,1,4.64-2.18c3,0,4.68,1.69,4.68,4.77V28.28h4.69V14.05c0-5.53-3-8.52-8.21-8.52a9.28,9.28,0,0,0-6.24,2.67v-2H62.44V28.28h4.68ZM39.7,17.22c0-4.28,2.72-7.45,6.91-7.45s6.91,3.3,6.91,7.45-2.81,7.4-6.91,7.4-6.91-3.21-6.91-7.4m-4.73,0A11.38,11.38,0,0,0,46.61,28.91,11.39,11.39,0,0,0,58.25,17.22a11.64,11.64,0,1,0-23.28,0M26.09,28.28h4.69V6.16H.36V28.28H5V10.85h8.21V28.28h4.68V10.85h8.16Z"/></g></g></svg>